<svg width="1600" height="1200" viewBox="0 0 1600 1200" fill="none" xmlns="http://www.w3.org/2000/svg">
  <rect width="1600" height="1200" fill="#09150F"/>
  <circle cx="1250" cy="220" r="240" fill="#27C56D" fill-opacity="0.18"/>
  <circle cx="300" cy="900" r="320" fill="#27C56D" fill-opacity="0.12"/>
  <path d="M108 871C230 698 435 612 639 656C855 702 955 847 1168 865C1315 878 1443 826 1554 734V1200H0V1035C42 987 74 939 108 871Z" fill="#103020"/>
  <path d="M1126 125C1022 225 1006 421 1099 531C1180 627 1338 660 1461 596C1545 551 1596 480 1600 379V0H1175C1181 43 1169 84 1126 125Z" fill="#163A29"/>
  <g stroke="#7AF0AA" stroke-opacity="0.35" stroke-width="3">
    <path d="M239 355C373 252 504 221 643 257C731 280 799 326 859 396"/>
    <path d="M286 442C422 341 589 323 730 388C826 431 897 497 943 571"/>
    <path d="M357 515C495 449 639 454 770 520C891 581 977 675 1041 792"/>
  </g>
  <g fill="#EAF8EF" fill-opacity="0.94">
    <rect x="1012" y="350" width="226" height="462" rx="36"/>
    <rect x="1034" y="398" width="182" height="268" rx="22" fill="#D5F5E1"/>
    <rect x="1067" y="703" width="116" height="16" rx="8" fill="#27C56D"/>
    <circle cx="1125" cy="763" r="17" fill="#0D1F17" fill-opacity="0.8"/>
  </g>
</svg>