<svg width="220" height="70" viewBox="0 0 220 70" fill="none" xmlns="http://www.w3.org/2000/svg">
  <rect width="220" height="70" rx="18" fill="white" fill-opacity="0.01"/>
  <g transform="translate(6,8)">
    <path d="M16 15.5C16 9.7 20.7 5 26.5 5C31.2 5 35.1 8.1 36.3 12.4C37.5 8.1 41.4 5 46.1 5C51.9 5 56.6 9.7 56.6 15.5V48.5H45.4V19C45.4 16 43 13.6 40 13.6C37 13.6 34.6 16 34.6 19V48.5H23.4V19C23.4 16 21 13.6 18 13.6C15 13.6 12.6 16 12.6 19V48.5H1.4V15.5C1.4 9.7 6.1 5 11.9 5C14 5 15.9 5.6 17.5 6.8" fill="#54B22B"/>
    <path d="M90.7 48.5C77.9 48.5 69.2 39.5 69.2 27C69.2 14.5 77.9 5.5 90.7 5.5C103.5 5.5 112.2 14.5 112.2 27C112.2 39.5 103.5 48.5 90.7 48.5ZM90.7 38.7C96.3 38.7 100.8 34 100.8 27C100.8 20 96.3 15.3 90.7 15.3C85 15.3 80.6 20 80.6 27C80.6 34 85 38.7 90.7 38.7Z" fill="#54B22B"/>
    <path d="M120.2 0.8H131.4V10.4C134.2 7 138.4 5 143.3 5C154 5 161.7 14 161.7 27C161.7 40 154 49 143.3 49C138.4 49 134.2 47 131.4 43.6V48.5H120.2V0.8ZM140.8 38.9C146.5 38.9 150.3 34.1 150.3 27C150.3 19.9 146.5 15.1 140.8 15.1C135.2 15.1 131.4 19.9 131.4 27C131.4 34.1 135.2 38.9 140.8 38.9Z" fill="#54B22B"/>
    <path d="M170.7 48.5V6.6H181.9V48.5H170.7Z" fill="#54B22B"/>
    <path d="M191.4 48.5V6.6H202.6V48.5H191.4Z" fill="#54B22B"/>
    <path d="M209.4 42.8L213.3 34.4C217.2 37.4 222.8 39.3 227.9 39.3C233.3 39.3 235.2 37.8 235.2 35.4C235.2 28.1 210.3 35.6 210.3 19.6C210.3 12 217 5 229.5 5C235.3 5 241.7 6.4 245.9 9L242 17.3C237.8 14.7 233.5 13.9 229.4 13.9C224.1 13.9 222.1 15.7 222.1 17.9C222.1 25.5 247 18.2 247 33.9C247 41.3 240.2 48.3 227.6 48.3C220.5 48.3 213.4 46.2 209.4 42.8Z" fill="#54B22B" transform="translate(-12,0)"/>
    <path d="M29.1 0.1C27.9 0 26.6 0 25.4 0C23.5 0 21.9 1.6 21.9 3.5C21.9 5.4 23.5 7 25.4 7H47.8C49.7 7 51.3 5.4 51.3 3.5C51.3 1.6 49.7 0 47.8 0C41.5 0 35.3 0 29.1 0.1Z" fill="#FF4C38" transform="translate(8,0)"/>
    <rect x="35" y="10" width="5" height="5" rx="2.5" fill="#FF4C38"/>
    <rect x="44" y="10" width="5" height="5" rx="2.5" fill="#FF4C38"/>
  </g>
</svg>
